<mxfile host="app.diagrams.net" modified="2021-04-15T10:15:45.350Z" agent="5.0 (Windows NT 10.0; Win64; x64) AppleWebKit/537.36 (KHTML, like Gecko) Chrome/88.0.4324.182 Safari/537.36 Edg/88.0.705.81" etag="DdkprC_LGNhTAB57azXR" version="14.6.0" type="github">
  <diagram id="Qz8gKT990qur2fdX-tO0" name="Page-1">
    <mxGraphModel dx="868" dy="402" grid="1" gridSize="10" guides="1" tooltips="1" connect="1" arrows="1" fold="1" page="1" pageScale="1" pageWidth="827" pageHeight="1169" math="0" shadow="0">
      <root>
        <mxCell id="0" />
        <mxCell id="1" parent="0" />
        <mxCell id="1N5ncKGWfzu7GIXW67kS-1" value="&lt;font style=&quot;font-size: 14px&quot;&gt;&lt;b&gt;Data Ontology&lt;/b&gt;&lt;/font&gt;" style="rounded=0;whiteSpace=wrap;html=1;fillColor=#FFFFFF;strokeColor=#000000;" vertex="1" parent="1">
          <mxGeometry x="110" y="160" width="130" height="40" as="geometry" />
        </mxCell>
        <mxCell id="1N5ncKGWfzu7GIXW67kS-2" value="spatial data" style="rounded=0;whiteSpace=wrap;html=1;strokeColor=#000000;fillColor=#FFFFFF;" vertex="1" parent="1">
          <mxGeometry x="310" y="110" width="100" height="30" as="geometry" />
        </mxCell>
        <mxCell id="1N5ncKGWfzu7GIXW67kS-3" value="no-spatial data" style="rounded=0;whiteSpace=wrap;html=1;strokeColor=#000000;fillColor=#FFFFFF;" vertex="1" parent="1">
          <mxGeometry x="310" y="220" width="100" height="30" as="geometry" />
        </mxCell>
      </root>
    </mxGraphModel>
  </diagram>
</mxfile>
